<mxfile host="app.diagrams.net" modified="2024-03-04T02:56:41.191Z" agent="Mozilla/5.0 (Macintosh; Intel Mac OS X 10_15_7) AppleWebKit/537.36 (KHTML, like Gecko) Chrome/120.0.0.0 Safari/537.36" version="24.0.1" etag="yY9A6V8hD6Innd3uNIS1" type="github">
  <diagram name="Page-1" id="OjOj89lyZiP5kVnwhls6">
    <mxGraphModel>
      <root>
        <mxCell id="0" />
        <mxCell id="1" parent="0" />
      </root>
    </mxGraphModel>
  </diagram>
</mxfile>
